<svg width="2588" height="739" viewBox="0 0 2588 739" fill="none" xmlns="http://www.w3.org/2000/svg">
<path d="M199.431 553.472C214.408 507.017 250.603 495.403 266.828 495.403C271.508 530.057 320.184 605.921 381.964 637.765C430.64 660.243 460.906 655.248 469.954 649.941C471.202 654.623 473.511 669.047 472.762 689.277C471.826 714.565 442.808 743.6 393.197 737.98C353.508 733.485 294.286 692.399 269.636 672.419C248.107 652.75 207.856 612.477 199.431 553.472Z" fill="#009DF5"/>
<path fill-rule="evenodd" clip-rule="evenodd" d="M240.238 188.653C256.775 251.093 274.654 398.328 270.91 476.253C331.92 625.164 472.349 644.897 484.857 646.654L485.073 646.685L485.269 646.712C518.031 651.395 655.633 662.635 752.048 527.765C817.573 399.452 704.308 403.199 693.076 404.135C684.651 406.945 665.368 417.81 655.633 438.789C647.99 449.801 642.843 457.616 638.921 463.572L638.92 463.573C630.833 475.853 627.951 480.23 619.126 488.428C606.021 500.604 570.451 527.765 517.095 488.428C474.972 448.155 483.397 400.389 486.205 389.15C492.757 367.608 518.031 323.963 566.707 321.715C615.382 319.467 648.768 361.364 659.377 382.594C668.114 393.208 695.884 409.38 737.071 389.15C778.258 368.919 757.976 303.296 742.687 273.012C733.639 257.09 708.24 222.249 679.035 210.261C679.206 209.712 679.373 209.083 679.53 208.379C646.975 195.184 594.102 186.044 541.495 192.713C484.834 199.896 428.572 225.402 398.291 283.823L397.403 283.362C427.886 224.551 484.511 198.929 541.369 191.721C594.042 185.044 646.994 194.156 679.735 207.383C682.476 192.931 680.385 153.185 628.379 128.7C522.871 103.562 447.344 137.514 407.992 167.922C387.165 184.016 371.146 204.303 360.33 220.578C354.923 228.714 350.82 235.842 348.069 240.935C346.694 243.482 345.657 245.519 344.964 246.919C344.617 247.618 344.357 248.159 344.184 248.524C344.097 248.706 344.032 248.845 343.989 248.938L343.94 249.042L343.928 249.068L343.925 249.074L343.925 249.076C343.924 249.076 343.924 249.076 343.47 248.868C343.015 248.66 343.015 248.66 343.015 248.659L343.016 248.657L343.02 248.65L343.032 248.623L343.082 248.515C343.127 248.42 343.193 248.279 343.28 248.094C343.456 247.725 343.719 247.18 344.068 246.475C344.765 245.065 345.808 243.018 347.189 240.46C349.952 235.345 354.071 228.19 359.497 220.025C370.347 203.699 386.436 183.315 407.381 167.131C446.322 137.04 520.417 103.57 623.686 126.592C623.433 126.483 623.179 126.375 622.924 126.267C531.098 64.2083 368.819 105.107 328.946 192.449V191.326C328.746 191.73 328.548 192.134 328.351 192.538C321.068 207.48 315.631 222.468 313.501 233.114L312.521 232.918C314.673 222.158 320.147 207.086 327.452 192.099C327.942 191.095 328.44 190.09 328.946 189.088V93.7165C323.781 44.3476 320.309 28.0176 298.992 10.1703C276.313 -8.81697 234.54 0.591216 225.98 23.4612C219.695 40.2533 220.105 48.1835 220.756 60.7638C220.988 65.2541 221.251 70.3367 221.251 76.6262C221.251 92.5482 232.749 160.379 240.238 188.653Z" fill="#009DF5"/>
<path d="M136.189 114.313C92.4726 214.898 31.2695 456.132 136.189 616.386" stroke="white" stroke-opacity="0.5"/>
<path d="M773.434 114.313C812.293 213.609 866.696 451.75 773.434 609.95" stroke="white" stroke-opacity="0.5"/>
<path d="M876.407 204.425C900.694 265.034 934.695 410.393 876.407 506.956" stroke="white" stroke-opacity="0.5"/>
<path d="M33.1842 210.862C8.89725 272.76 -25.1045 421.212 33.1842 519.83" stroke="white" stroke-opacity="0.5"/>
<path d="M1046.07 258.316H987.035V212.806H1151.85V258.316H1091.17V499.806H1046.07V258.316ZM1316.49 424.366C1316.49 447.326 1310.2 466.322 1297.63 481.356C1285.05 496.389 1266.06 503.906 1240.64 503.906C1215.22 503.906 1195.95 496.389 1182.83 481.356C1169.98 466.049 1163.56 447.052 1163.56 424.366V370.246C1163.56 344.279 1170.12 324.462 1183.24 310.796C1196.63 296.856 1215.76 289.886 1240.64 289.886C1264.42 289.886 1283 297.129 1296.4 311.616C1309.79 325.829 1316.49 345.372 1316.49 370.246V424.366ZM1271.8 370.246C1271.8 355.759 1268.79 346.329 1262.78 341.956C1256.76 337.582 1249.38 335.396 1240.64 335.396C1219.32 335.396 1208.66 347.012 1208.66 370.246V428.466C1208.66 439.399 1211.66 447.326 1217.68 452.246C1223.69 457.166 1231.34 459.626 1240.64 459.626C1249.66 459.626 1257.04 457.029 1262.78 451.836C1268.79 446.642 1271.8 438.852 1271.8 428.466V370.246ZM1364.55 212.806H1409.65V458.396H1512.56V499.806H1364.55V212.806ZM1563.58 257.086L1538.16 256.266V212.806H1608.68V499.806H1563.58V257.086ZM1673.65 212.806H1757.29C1779.98 212.806 1798.84 219.092 1813.87 231.666C1828.91 244.239 1836.42 262.142 1836.42 285.376C1836.42 296.309 1834.65 306.696 1831.09 316.536C1827.54 326.376 1820.3 334.986 1809.36 342.366L1808.95 343.186V343.596C1820.98 349.062 1830.96 357.809 1838.88 369.836C1847.08 381.862 1851.18 397.169 1851.18 415.756C1851.18 429.969 1848.31 443.499 1842.57 456.346C1836.83 468.919 1827.4 479.306 1814.28 487.506C1801.16 495.706 1784.22 499.806 1763.44 499.806H1673.65V212.806ZM1738.43 330.476C1754.01 330.476 1765.49 327.606 1772.87 321.866C1780.25 316.126 1783.94 306.286 1783.94 292.346C1783.94 279.499 1780.53 270.616 1773.69 265.696C1766.86 260.502 1756.47 257.906 1742.53 257.906H1718.75V330.476H1738.43ZM1743.76 458.396C1756.34 458.396 1766.45 457.439 1774.1 455.526C1782.03 453.339 1788.18 449.102 1792.55 442.816C1797.2 436.529 1799.52 427.236 1799.52 414.936C1799.52 399.356 1794.74 388.696 1785.17 382.956C1775.61 376.942 1763.03 373.936 1747.45 373.936H1718.75V458.396H1743.76ZM2004.03 419.856H1944.17V499.806H1899.07V212.806H1996.24C2014.28 212.806 2029.32 217.316 2041.34 226.336C2053.37 235.082 2062.25 246.836 2067.99 261.596C2074.01 276.356 2077.01 292.619 2077.01 310.386C2077.01 323.779 2076.47 335.396 2075.37 345.236C2074.28 355.076 2071.41 365.326 2066.76 375.986C2062.39 386.646 2055.28 396.212 2045.44 404.686L2077.42 499.806H2031.5L2004.03 419.856ZM1985.58 376.806C1998.98 376.806 2008.82 373.389 2015.1 366.556C2021.66 359.449 2025.63 351.386 2026.99 342.366C2028.63 333.346 2029.45 322.686 2029.45 310.386C2029.45 295.899 2027.4 284.966 2023.3 277.586C2019.2 269.932 2013.46 264.876 2006.08 262.416C1998.7 259.682 1989.14 258.316 1977.38 258.316H1944.17V376.806H1985.58ZM2239.97 424.776H2173.96L2157.97 499.806H2107.13L2174.37 212.806H2237.92L2310.49 499.806H2256.78L2239.97 424.776ZM2184.62 376.806H2229.31L2205.94 288.246L2184.62 376.806ZM2378.28 419.856C2379.65 431.882 2384.57 441.586 2393.04 448.966C2401.51 456.346 2412.58 460.036 2426.25 460.036C2437.73 460.036 2447.02 458.122 2454.13 454.296C2461.51 450.469 2466.84 445.822 2470.12 440.356C2473.4 434.889 2475.04 429.559 2475.04 424.366C2475.04 412.339 2472.03 402.362 2466.02 394.436C2460.28 386.236 2453.04 379.812 2444.29 375.166C2435.82 370.246 2424.2 364.642 2409.44 358.356C2393.31 351.522 2380.47 345.372 2370.9 339.906C2361.61 334.166 2353.54 326.512 2346.71 316.946C2340.15 307.106 2336.87 294.669 2336.87 279.636C2336.87 267.609 2340.29 256.266 2347.12 245.606C2353.95 234.672 2364.34 225.789 2378.28 218.956C2392.22 212.122 2409.3 208.706 2429.53 208.706C2442.92 208.706 2453.99 209.662 2462.74 211.576C2471.49 213.489 2480.37 216.632 2489.39 221.006L2475.04 263.646C2465.2 260.366 2457.14 258.042 2450.85 256.676C2444.84 255.309 2437.87 254.626 2429.94 254.626C2414.36 254.626 2402.88 257.359 2395.5 262.826C2388.12 268.292 2384.84 275.262 2385.66 283.736C2386.48 290.569 2390.58 296.446 2397.96 301.366C2405.61 306.286 2417.37 312.299 2433.22 319.406C2451.81 327.606 2467.25 335.396 2479.55 342.776C2491.85 350.156 2502.37 360.269 2511.12 373.116C2520.14 385.962 2524.65 401.679 2524.65 420.266C2524.65 444.592 2516.59 464.682 2500.46 480.536C2484.33 496.389 2459.73 504.316 2426.66 504.316C2406.43 504.316 2389.08 500.626 2374.59 493.246C2360.38 485.592 2349.44 475.889 2341.79 464.136C2334.41 452.109 2330.45 439.672 2329.9 426.826L2378.28 419.856Z" fill="#009DF5"/>
</svg>
